<svg width="0" height="0" class="hidden">
  <symbol fill="none" xmlns="http://www.w3.org/2000/svg" viewBox="0 0 24 24" id="X-social">
    <path d="M17.1761 4.24268H19.9362L13.9061 11.0201L21 20.2427H15.4456L11.0951 14.6493L6.11723 20.2427H3.35544L9.80517 12.9935L3 4.24268H8.69545L12.6279 9.3553L17.1761 4.24268ZM16.2073 18.6181H17.7368L7.86441 5.78196H6.2232L16.2073 18.6181Z" fill="#030C01"></path>
  </symbol>
  <symbol fill="none" xmlns="http://www.w3.org/2000/svg" viewBox="0 0 24 24" id="x">
    <path d="M16.192 6.34424L11.949 10.5862L7.70697 6.34424L6.29297 7.75824L10.535 12.0002L6.29297 16.2422L7.70697 17.6562L11.949 13.4142L16.192 17.6562L17.606 16.2422L13.364 12.0002L17.606 7.75824L16.192 6.34424Z" fill="#030C01"></path>
  </symbol>
  <symbol fill="none" xmlns="http://www.w3.org/2000/svg" viewBox="0 0 24 24" id="Facebook">
    <path d="M22 12.3038C22 6.74719 17.5229 2.24268 12 2.24268C6.47715 2.24268 2 6.74719 2 12.3038C2 17.3255 5.65684 21.4879 10.4375 22.2427V15.2121H7.89844V12.3038H10.4375V10.0872C10.4375 7.56564 11.9305 6.1728 14.2146 6.1728C15.3088 6.1728 16.4531 6.36931 16.4531 6.36931V8.84529H15.1922C13.95 8.84529 13.5625 9.6209 13.5625 10.4166V12.3038H16.3359L15.8926 15.2121H13.5625V22.2427C18.3432 21.4879 22 17.3257 22 12.3038Z" fill="#030C01"></path>
  </symbol>
  <symbol fill="none" xmlns="http://www.w3.org/2000/svg" viewBox="0 0 24 24" id="Instagram">
    <path d="M11.9988 4.62091C14.4032 4.62091 14.6878 4.63159 15.6332 4.67378C16.5123 4.71258 16.9864 4.85994 17.303 4.98311C17.7215 5.14509 18.0235 5.34194 18.3362 5.65465C18.6528 5.97129 18.8458 6.26994 19.0111 6.68838C19.1343 7.00503 19.2816 7.48253 19.3204 8.35822C19.3626 9.3076 19.3733 9.59218 19.3733 11.9932C19.3733 14.3942 19.3626 14.6821 19.3204 15.6281C19.2816 16.5072 19.1343 16.9813 19.0111 17.298C18.8491 17.7164 18.6528 18.0184 18.3396 18.3311C18.0229 18.6478 17.7243 18.8407 17.3064 19.0061C16.9898 19.1292 16.5117 19.2766 15.6366 19.3154C14.6872 19.3576 14.4026 19.3683 12.0016 19.3683C9.60062 19.3683 9.31266 19.3576 8.36666 19.3154C7.48759 19.2766 7.01346 19.1292 6.69682 19.0061C6.27838 18.8441 5.97635 18.6478 5.66308 18.3345C5.34644 18.0179 5.15353 17.7192 4.98817 17.3013C4.865 16.9847 4.71765 16.5066 4.67884 15.6315C4.63666 14.6821 4.62597 14.3975 4.62597 11.9965C4.62597 9.59556 4.63666 9.3076 4.67884 8.3616C4.71765 7.48253 4.865 7.0084 4.98817 6.69176C5.15015 6.27331 5.347 5.97129 5.65971 5.65802C5.97635 5.34137 6.275 5.14846 6.69344 4.98311C7.01009 4.85994 7.48759 4.71258 8.36328 4.67378C9.30872 4.63159 9.59387 4.62091 11.9982 4.62091H11.9988ZM11.9988 3.00056C9.55563 3.00056 9.25023 3.01125 8.29017 3.05343C7.33405 3.09561 6.67657 3.25028 6.1074 3.47187C5.51348 3.70359 5.01067 4.00955 4.5118 4.51236C4.00899 5.01179 3.70303 5.51404 3.47131 6.10459C3.24972 6.6777 3.09505 7.33123 3.05287 8.28736C3.01069 9.25079 3 9.55619 3 11.9994C3 14.4425 3.01069 14.7479 3.05287 15.708C3.09505 16.6641 3.24972 17.3216 3.47131 17.8908C3.70359 18.4847 4.00899 18.9875 4.5118 19.4864C5.01067 19.9852 5.51348 20.2951 6.10402 20.5235C6.67713 20.7451 7.33067 20.8997 8.28679 20.9419C9.24629 20.9841 9.55225 20.9948 11.9954 20.9948C14.4386 20.9948 14.7446 20.9841 15.7041 20.9419C16.6602 20.8997 17.3177 20.7451 17.8868 20.5235C18.4774 20.2951 18.9802 19.9858 19.4791 19.4864C19.9779 18.9869 20.2878 18.4847 20.5162 17.8941C20.7378 17.321 20.8924 16.6675 20.9346 15.7114C20.9768 14.7519 20.9875 14.4459 20.9875 12.0027C20.9875 9.55956 20.9768 9.25417 20.9346 8.29411C20.8924 7.33798 20.7378 6.68051 20.5162 6.11133C20.2946 5.51348 19.9886 5.01123 19.4864 4.5118C18.9875 4.01293 18.4847 3.70303 17.8941 3.47469C17.321 3.25309 16.6675 3.09842 15.7114 3.05624C14.7485 3.01069 14.4425 3 11.9994 3L11.9988 3.00056Z" fill="black"></path>
    <path d="M11.9985 7.37671C9.44683 7.37671 7.37598 9.447 7.37598 11.9993C7.37598 14.5516 9.44626 16.6219 11.9985 16.6219C14.5508 16.6219 16.6211 14.5516 16.6211 11.9993C16.6211 9.44756 14.5508 7.37671 11.9985 7.37671ZM11.9985 14.9976C10.3428 14.9976 9.00026 13.6551 9.00026 11.9993C9.00026 10.3435 10.3428 9.00099 11.9985 9.00099C13.6543 9.00099 14.9968 10.3435 14.9968 11.9993C14.9968 13.6551 13.6543 14.9976 11.9985 14.9976Z" fill="black"></path>
    <path d="M17.8822 7.19404C17.8822 7.79021 17.3991 8.27333 16.8029 8.27333C16.2068 8.27333 15.7236 7.79021 15.7236 7.19404C15.7236 6.59787 16.2068 6.11475 16.8029 6.11475C17.3991 6.11475 17.8822 6.59787 17.8822 7.19404Z" fill="black"></path>
  </symbol>
  <symbol fill="none" xmlns="http://www.w3.org/2000/svg" viewBox="0 0 24 24" id="left-arrow-alt">
    <path d="M12.7069 17.293L8.41394 13H17.9999V11H8.41394L12.7069 6.70697L11.2929 5.29297L4.58594 12L11.2929 18.707L12.7069 17.293Z" fill="#030C01"></path>
  </symbol>
  <symbol fill="none" xmlns="http://www.w3.org/2000/svg" viewBox="0 0 24 24" id="map">
    <path d="M12.0001 14C14.2061 14 16.0001 12.206 16.0001 10C16.0001 7.794 14.2061 6 12.0001 6C9.79406 6 8.00006 7.794 8.00006 10C8.00006 12.206 9.79406 14 12.0001 14ZM12.0001 8C13.1031 8 14.0001 8.897 14.0001 10C14.0001 11.103 13.1031 12 12.0001 12C10.8971 12 10.0001 11.103 10.0001 10C10.0001 8.897 10.8971 8 12.0001 8Z" fill="#030C01"></path>
    <path d="M11.4201 21.814C11.5893 21.9349 11.7921 21.9998 12.0001 21.9998C12.2081 21.9998 12.4108 21.9349 12.5801 21.814C12.8841 21.599 20.0291 16.44 20.0001 10C20.0001 5.589 16.4111 2 12.0001 2C7.58909 2 4.00009 5.589 4.00009 9.995C3.97109 16.44 11.1161 21.599 11.4201 21.814ZM12.0001 4C15.3091 4 18.0001 6.691 18.0001 10.005C18.0211 14.443 13.6121 18.428 12.0001 19.735C10.3891 18.427 5.97909 14.441 6.00009 10C6.00009 6.691 8.69109 4 12.0001 4Z" fill="#030C01"></path>
  </symbol>
  <symbol fill="none" xmlns="http://www.w3.org/2000/svg" viewBox="0 0 24 24" id="phone">
    <path d="M17.7073 12.293C17.6145 12.2 17.5043 12.1263 17.383 12.076C17.2617 12.0257 17.1317 11.9998 17.0003 11.9998C16.869 11.9998 16.739 12.0257 16.6176 12.076C16.4963 12.1263 16.3861 12.2 16.2933 12.293L14.6993 13.887C13.9603 13.667 12.5813 13.167 11.7073 12.293C10.8333 11.419 10.3333 10.04 10.1133 9.30096L11.7073 7.70696C11.8003 7.61417 11.874 7.50397 11.9243 7.38265C11.9746 7.26134 12.0005 7.13129 12.0005 6.99996C12.0005 6.86862 11.9746 6.73858 11.9243 6.61726C11.874 6.49595 11.8003 6.38575 11.7073 6.29296L7.70733 2.29296C7.61455 2.20001 7.50434 2.12627 7.38303 2.07596C7.26171 2.02565 7.13167 1.99976 7.00033 1.99976C6.869 1.99976 6.73896 2.02565 6.61764 2.07596C6.49633 2.12627 6.38612 2.20001 6.29333 2.29296L3.58133 5.00496C3.20133 5.38496 2.98733 5.90696 2.99533 6.43996C3.01833 7.86396 3.39533 12.81 7.29333 16.708C11.1913 20.606 16.1373 20.982 17.5623 21.006H17.5903C18.1183 21.006 18.6173 20.798 18.9953 20.42L21.7073 17.708C21.8003 17.6152 21.874 17.505 21.9243 17.3837C21.9746 17.2623 22.0005 17.1323 22.0005 17.001C22.0005 16.8696 21.9746 16.7396 21.9243 16.6183C21.874 16.4969 21.8003 16.3867 21.7073 16.294L17.7073 12.293ZM17.5803 19.005C16.3323 18.984 12.0623 18.649 8.70733 15.293C5.34133 11.927 5.01533 7.64196 4.99533 6.41896L7.00033 4.41396L9.58633 6.99996L8.29333 8.29296C8.1758 8.41041 8.08938 8.55529 8.04189 8.71453C7.9944 8.87376 7.98733 9.04231 8.02133 9.20496C8.04533 9.31996 8.63233 12.047 10.2923 13.707C11.9523 15.367 14.6793 15.954 14.7943 15.978C14.9569 16.0129 15.1256 16.0064 15.285 15.9591C15.4444 15.9117 15.5893 15.825 15.7063 15.707L17.0003 14.414L19.5863 17L17.5803 19.005Z" fill="#030C01"></path>
  </symbol>
  <symbol fill="none" xmlns="http://www.w3.org/2000/svg" viewBox="0 0 24 24" id="menu">
    <path d="M4 6H20V8H4V6ZM4 11H20V13H4V11ZM4 16H20V18H4V16Z" fill="#030C01"></path>
  </symbol>
  <symbol fill="none" xmlns="http://www.w3.org/2000/svg" viewBox="0 0 24 24" id="right-arrow-alt">
    <path d="M11.293 17.293L12.707 18.707L19.414 12L12.707 5.29297L11.293 6.70697L15.586 11H6V13H15.586L11.293 17.293Z" fill="#030C01"></path>
  </symbol>
  <symbol fill="none" xmlns="http://www.w3.org/2000/svg" viewBox="0 0 24 24" id="top-arrow-alt">
    <path d="M18 13.414L19.414 12L12.707 5.29303L6 12L7.414 13.414L11.707 9.12103V18.707H13.707V9.12103L18 13.414Z" fill="#030C01"></path>
  </symbol>
  <symbol fill="none" xmlns="http://www.w3.org/2000/svg" viewBox="0 0 96 85" id="Flower">
    <path d="M19.1547 8.17091C20.6273 5.9463 22.2602 4.06228 24.4993 2.56996C27.6043 0.501308 31.303 -0.539436 35.0082 0.280782C37.9951 0.942238 40.4249 2.95119 42.0608 5.45761C43.7442 9.00385 45.2201 12.5343 46.3129 16.3098C46.5361 17.0779 46.8192 18.6047 47.1333 20.2984C47.6903 23.3009 48.3449 26.8295 48.9337 27.5843C49.4683 32.7817 45.6148 40.4072 42.3837 44.3786C41.6099 45.3412 40.7603 46.2422 39.8444 47.0732C45.4874 56.3025 48.6826 67.0938 49.7036 77.8473C52.1967 69.4939 54.7659 61.1633 57.4143 52.8569C53.2059 46.3652 53.569 35.8099 55.1487 28.5004C56.7204 21.2219 60.2386 13.3091 66.7685 9.2144C67.4947 8.76032 68.2485 8.35244 69.0105 7.9572C73.6217 13.7083 75.3531 20.0993 74.5551 27.4055C73.4861 37.2206 67.9772 46.3979 60.2826 52.4943L59.9634 52.7458C59.3525 54.9196 58.6492 57.0856 57.9459 59.2527C56.9816 62.2227 56.0168 65.1948 55.2882 68.1914C55.3302 68.1745 55.3728 68.1582 55.4154 68.1419C55.4944 68.1118 55.5734 68.0814 55.6513 68.0465C56.5237 67.6565 58.0845 65.2347 59.3847 63.2172C60.0518 62.1818 60.6506 61.2529 61.0523 60.7597C67.8257 52.4354 77.0285 47.4636 87.9304 47.6988C89.9807 47.7425 92.4379 47.8198 94.3886 48.394C95.33 48.6702 95.4893 48.8183 96.0001 49.6353C95.6888 55.4055 88.0897 64.5249 83.73 68.4381C74.7428 76.5049 63.5772 81.1461 52.2886 85C51.829 84.8979 51.5734 84.8411 51.0556 84.7261L47.1048 83.8485L45.0723 83.397L43.2017 82.8307L43.3291 82.498C43.0962 81.5897 41.7536 81.3353 40.8123 81.1567L40.8002 81.1544C40.7141 81.1382 40.6317 81.1225 40.5538 81.1071C39.4513 80.8874 38.3364 80.672 37.2142 80.4551L37.1962 80.4517C24.908 78.078 11.7019 75.5269 3.58043 65.1545C2.19265 63.3823 -0.248179 59.8739 0.0359185 57.648C1.91685 56.0426 7.46652 55.483 9.87476 55.3481C22.0589 54.664 33.5641 61.1474 41.1352 70.313C41.8887 71.2241 42.5743 72.3473 43.2637 73.4769C44.2346 75.0678 45.2135 76.6713 46.4009 77.7128L46.8716 76.8388C45.5513 66.514 43.1497 57.2672 37.4572 48.4625C33.4646 49.6429 29.7616 49.9831 25.6132 49.2238C22.9633 48.7383 18.687 47.4055 17.0864 45.1236C16.6215 44.3913 13.938 43.0666 11.3151 41.7719C9.28118 40.7677 7.28371 39.7816 6.38578 39.1039C2.59195 36.2397 0.715777 32.4359 0.0328676 27.7932L0.016759 27.4019C-0.154822 22.2292 1.09762 17.6103 4.77052 13.805C8.62439 9.81214 13.7289 8.26286 19.1547 8.17091Z" fill="#353C3A"></path>
    <path d="M19.1533 8.17091C20.6261 5.94627 22.2588 4.06229 24.4982 2.56991C27.6029 0.501267 31.3019 -0.539427 35.0068 0.280787C37.9938 0.942211 40.4235 2.95115 42.0594 5.45756C36.9419 6.93562 35.1967 8.89801 32.2293 13.2892C31.449 15.4279 30.7805 17.6657 30.5914 19.9456C34.1919 23.1115 36.5055 26.6741 36.825 31.5774C36.8633 32.1633 36.9068 32.2723 36.5861 32.7471L35.2777 32.361C34.1117 33.2107 33.8197 34.6585 33.6023 36.0156C33.2146 38.4392 33.1575 41.0527 33.2054 43.5054C30.2013 42.6282 27.5566 42.3238 24.43 42.4691C21.8571 43.1042 19.4294 43.8448 17.085 45.1235C16.2597 43.8233 8.44006 40.6555 6.38452 39.1038C2.59058 36.2397 0.714539 32.4359 0.031621 27.7932L0.0152842 27.402C-0.156243 22.2292 1.09629 17.6103 4.76937 13.805C8.62315 9.81214 13.7275 8.26284 19.1533 8.17091Z" fill="#EAE9E8"></path>
    <path d="M19.1533 8.17091C20.6261 5.94627 22.2588 4.06229 24.4982 2.56991C27.6029 0.501267 31.3019 -0.539427 35.0068 0.280787C37.9938 0.942211 40.4235 2.95115 42.0594 5.45756C36.9419 6.93562 35.1967 8.89801 32.2293 13.2892C31.449 15.4279 30.7805 17.6657 30.5914 19.9456L26.9973 18.499C25.5633 18.5372 22.7382 18.2499 21.51 18.8683L19.926 19.6368C19.3153 20.1908 18.602 21.0257 17.9 21.4288L16.5729 23.7152L15.6538 23.7717C11.3816 23.6953 7.34786 24.1601 3.43784 26.0007C2.33248 26.5213 1.17248 27.4477 0.031621 27.7932L0.0152842 27.402C-0.156243 22.2292 1.09629 17.6103 4.76937 13.805C8.62315 9.81214 13.7275 8.26284 19.1533 8.17091Z" fill="#DB8778"></path>
    <path d="M26.9985 18.499C27.6527 16.7503 28.204 14.6001 29.5551 13.2661C30.7745 12.7742 31.0198 12.9354 32.2305 13.2892C31.4503 15.4278 30.7817 17.6656 30.5926 19.9456L26.9985 18.499Z" fill="#353C3A"></path>
    <path d="M19.9262 19.6369C18.635 18.751 17.1499 17.8468 16.1047 16.6661C15.427 15.9008 15.072 15.0678 15.1194 14.0474L15.7988 13.7131C18.6585 14.3387 19.8811 16.6724 21.5102 18.8684L19.9262 19.6369Z" fill="#353C3A"></path>
    <path d="M15.653 23.7716C15.1149 23.7052 14.5086 23.6574 13.9864 23.5038C13.114 23.2471 12.9736 22.8866 12.6421 22.1388C13.0143 21.6182 13.1032 21.4746 13.694 21.2155C15.1221 20.5895 16.5003 20.9066 17.8992 21.4288L16.5721 23.7151L15.653 23.7716Z" fill="#353C3A"></path>
    <path d="M22.7792 10.4907C23.2619 10.6989 23.7354 10.9472 24.0405 11.3937C25.2643 13.1866 25.0593 16.7655 24.8371 18.8429L23.1362 18.3391C22.9032 18.0844 22.7225 17.8818 22.5789 17.5638C21.5765 15.3463 21.9906 12.6975 22.7792 10.4907Z" fill="#353C3A"></path>
    <path d="M15.6554 23.7716L16.5744 23.7151C15.4543 27.9419 14.8504 32.2169 17.1955 36.1882C18.8693 39.0229 21.5846 40.9312 24.4316 42.469C21.8587 43.1041 19.431 43.8447 17.0866 45.1234C16.2613 43.8232 8.44164 40.6554 6.38611 39.1037C2.59216 36.2396 0.716121 32.4358 0.0332031 27.7931C1.17406 27.4476 2.33406 26.5212 3.43942 26.0006C7.34944 24.16 11.3831 23.6952 15.6554 23.7716Z" fill="#EBB19F"></path>
    <path d="M55.2881 68.1913C55.4078 68.1431 55.5315 68.1001 55.6511 68.0464C56.9715 67.4562 59.8675 62.2138 61.0523 60.7596C67.8256 52.4353 77.0283 47.4635 87.9302 47.6987C89.9806 47.7424 92.4378 47.8196 94.3884 48.3939C95.3298 48.6701 95.4894 48.8181 96 49.6352C95.6888 55.4053 88.0898 64.5248 83.7298 68.438C74.7425 76.5048 63.5773 81.146 52.2884 84.9999C58.1522 77.5917 65.0133 70.322 72.3531 64.3664C74.9061 62.2946 85.6884 55.711 86.4702 54.3567C86.1232 54.131 86.0753 53.9874 85.6445 54.0499C75.8953 55.4646 57.1151 75.447 51.2832 83.0021C52.0212 77.8579 53.2896 72.9999 55.2881 68.1913Z" fill="#97A898"></path>
    <path d="M43.2013 82.8306L43.329 82.4979C43.0737 81.5026 41.486 81.2924 40.5534 81.107C27.3761 78.4804 12.4477 76.4794 3.58009 65.1544C2.19232 63.3822 -0.248553 59.8738 0.0354639 57.6479C1.91668 56.0425 7.46618 55.483 9.87434 55.3481C22.0588 54.6639 33.5639 61.1473 41.135 70.3129C42.95 72.5073 44.3701 75.9318 46.4005 77.7127L46.8712 76.8388C47.0786 78.0681 47.1624 79.0355 46.9829 80.284C45.5189 79.816 43.2053 76.8169 41.8291 75.73C34.0633 69.5882 20.4416 61.2352 10.1636 61.5297L9.89789 61.8915C12.458 63.8805 16.7841 64.6709 19.8377 65.7275C29.0495 68.9156 39.3208 74.9608 45.1918 82.9114L44.8767 83.2648C44.3661 83.149 43.6481 83.0825 43.2013 82.8306Z" fill="#97A898"></path>
    <path d="M69.0084 7.95703C73.6197 13.7081 75.351 20.0991 74.5532 27.4054C73.4841 37.2205 67.9753 46.3976 60.2805 52.4941L59.9614 52.7456C61.7405 43.9879 63.0608 34.7562 65.6696 26.2274C66.2401 24.372 67.5086 21.0219 66.5672 19.2558L65.909 19.5184C61.892 25.8612 59.8577 44.5407 57.4124 52.8567C53.204 46.365 53.567 35.8097 55.1466 28.5002C56.7183 21.2217 60.2366 13.3089 66.7666 9.21421C67.4926 8.76013 68.2465 8.35221 69.0084 7.95703Z" fill="#97A898"></path>
    <path d="M32.2292 13.2892C35.1966 8.89797 36.9418 6.93558 42.0593 5.45752C43.7427 9.00382 45.2186 12.5342 46.3116 16.3097C46.9299 18.4397 48.0109 26.4034 48.9323 27.5842C45.6614 28.2436 43.3916 29.9991 41.5726 32.7618C40.5602 34.3007 39.7676 36.0546 39.0352 37.7435C38.2251 36.248 36.9139 34.403 36.586 32.747C36.9067 32.2723 36.8632 32.1632 36.8249 31.5774C36.5054 26.674 34.1918 23.1114 30.5913 19.9456C30.7804 17.6656 31.4489 15.4278 32.2292 13.2892Z" fill="#EBB19F"></path>
  </symbol>
  <symbol fill="none" xmlns="http://www.w3.org/2000/svg" viewBox="0 0 74 36" id="logo-dark">
    <g clip-path="url(#clip0_8203_84389)">
      <path d="M31.5942 0.534101C31.1299 0.844258 30.7914 1.2358 30.486 1.69815C29.361 1.71725 28.3026 2.03924 27.5036 2.86906C26.742 3.65992 26.4823 4.61985 26.5179 5.6949L26.5212 5.7762C26.6629 6.74109 27.0519 7.53162 27.8385 8.12688C28.0247 8.26774 28.4388 8.47268 28.8605 8.68136C29.4044 8.95044 29.9608 9.22575 30.0572 9.37794C30.3891 9.85219 31.2757 10.1292 31.8252 10.2301C32.6853 10.3879 33.4531 10.3172 34.2809 10.0719C35.4612 11.9017 35.9592 13.8235 36.2329 15.9693L36.1353 16.1509C35.8891 15.9345 35.6862 15.6012 35.4848 15.2706C35.3419 15.0358 35.1997 14.8024 35.0435 14.613C33.4737 12.7081 31.0882 11.3607 28.5619 11.5029C28.0626 11.5309 26.9119 11.6472 26.5219 11.9809C26.463 12.4435 26.9691 13.1726 27.2568 13.5409C28.9407 15.6966 31.6789 16.2268 34.2268 16.7201C34.4608 16.7654 34.6932 16.8104 34.923 16.8563C34.9399 16.8597 34.9578 16.8631 34.9766 16.8667C35.1718 16.9038 35.4501 16.9566 35.4984 17.1454L35.472 17.2145C32.8706 16.7768 30.1543 17.0925 27.9615 18.6644C26.0871 20.0081 25.011 22.1291 24.6477 24.3731C24.2164 27.0366 24.6665 30.0173 26.2698 32.2348C27.5661 34.0277 29.4806 35.1652 31.6601 35.5098C34.0688 35.8905 36.6861 35.4429 38.6769 33.9853C40.566 32.6021 41.6355 30.4877 41.982 28.206C42.3988 25.4599 42.0159 22.5405 40.3344 20.2674C39.6083 19.2857 38.7514 18.6179 37.7076 18.0025C37.6849 17.9892 37.6621 17.9765 37.6395 17.964C37.5113 17.8928 37.3913 17.8262 37.3561 17.6654C39.6967 16.8644 42.0118 15.8999 43.8752 14.2234C44.7792 13.4101 46.3548 11.5148 46.4194 10.3156C46.3134 10.1458 46.2804 10.115 46.0852 10.0576C45.6808 9.93829 45.1713 9.92224 44.7462 9.91314C42.4857 9.86427 40.5776 10.8976 39.1732 12.6276C39.0899 12.7301 38.9657 12.9231 38.8274 13.1383C38.5578 13.5576 38.2342 14.0609 38.0533 14.142C38.0372 14.1492 38.0208 14.1555 38.0044 14.1618C37.9956 14.1652 37.9867 14.1686 37.978 14.1721C38.1291 13.5493 38.3292 12.9316 38.5291 12.3144C38.6749 11.864 38.8207 11.4138 38.9474 10.9621L39.0136 10.9098C40.609 9.64277 41.7512 7.7355 41.9729 5.69564C42.1383 4.17719 41.7793 2.84896 40.8232 1.65373C40.6652 1.73586 40.5089 1.82064 40.3584 1.91501C39.0045 2.766 38.275 4.41051 37.9491 5.92318C37.6216 7.44229 37.5463 9.63599 38.4189 10.9851C37.8697 12.7114 37.337 14.4428 36.8201 16.1789C36.6084 13.944 35.9459 11.7012 34.7759 9.78313C34.9658 9.61043 35.1419 9.42318 35.3024 9.2231C35.9723 8.39775 36.7713 6.81296 36.6605 5.73278C36.5384 5.57588 36.4027 4.84269 36.2872 4.21858C36.2221 3.86657 36.1634 3.54927 36.1171 3.38963C35.8905 2.60497 35.5845 1.87126 35.2354 1.13424C34.8962 0.613336 34.3924 0.195818 33.7731 0.0583553C33.0049 -0.112108 32.238 0.104179 31.5942 0.534101ZM32.4017 17.7802C33.4868 17.6731 34.4883 17.7808 35.4323 18.3749C36.9558 19.3339 37.6936 21.1288 38.0765 22.8147C38.7332 25.7107 38.7299 30.4167 37.0658 33.002C36.3884 34.0544 35.515 34.567 34.3178 34.8267C33.201 34.9468 32.1369 34.8358 31.1795 34.2041C29.6068 33.1662 28.9163 31.1943 28.5524 29.4279C27.9428 26.4692 27.8597 22.2141 29.6134 19.593C30.3152 18.5439 31.1888 18.0297 32.4017 17.7802Z" fill="#F2F2F2"></path>
      <path d="M30.486 1.69815C30.7913 1.2358 31.1298 0.844258 31.5942 0.534099C32.2379 0.104177 33.0049 -0.112108 33.7731 0.0583554C34.3924 0.195818 34.8962 0.613333 35.2354 1.13423C34.1743 1.44142 33.8124 1.84926 33.1972 2.76187C33.0354 3.20635 32.8968 3.67142 32.8576 4.14526C33.6041 4.80321 34.0838 5.54362 34.15 6.56268C34.158 6.68443 34.167 6.70709 34.1005 6.80576L33.8292 6.72553C33.5875 6.90212 33.5269 7.20302 33.4818 7.48505C33.4014 7.98875 33.3896 8.5319 33.3995 9.04164C32.7767 8.85935 32.2283 8.79608 31.58 8.82626C31.0466 8.95827 30.5432 9.11219 30.0571 9.37793C29.886 9.10772 28.2646 8.44936 27.8384 8.12688C27.0518 7.53162 26.6628 6.74109 26.5212 5.7762L26.5178 5.6949C26.4823 4.61984 26.742 3.65992 27.5035 2.86906C28.3026 2.03924 29.3609 1.71725 30.486 1.69815Z" fill="#EEEE60"></path>
      <path d="M30.486 1.69815C30.7913 1.2358 31.1298 0.844258 31.5942 0.534099C32.2379 0.104177 33.0049 -0.112108 33.7731 0.0583554C34.3924 0.195818 34.8962 0.613333 35.2354 1.13423C34.1743 1.44142 33.8124 1.84926 33.1972 2.76187C33.0354 3.20635 32.8968 3.67142 32.8576 4.14526L32.1123 3.84461C31.815 3.85255 31.2293 3.79284 30.9746 3.92137L30.6462 4.08108C30.5195 4.19621 30.3716 4.36973 30.2261 4.45352L29.9509 4.92868L29.7603 4.94043C28.8745 4.92455 28.0382 5.02115 27.2275 5.40368C26.9983 5.51186 26.7578 5.70441 26.5212 5.7762L26.5178 5.6949C26.4823 4.61984 26.742 3.65992 27.5035 2.86906C28.3026 2.03924 29.3609 1.71725 30.486 1.69815Z" fill="#AC321C"></path>
      <path d="M32.1123 3.84461C32.2479 3.48119 32.3623 3.03431 32.6424 2.75707C32.8952 2.65484 32.9461 2.68834 33.1971 2.76187C33.0353 3.20635 32.8967 3.67142 32.8575 4.14526L32.1123 3.84461Z" fill="#F2F2F2"></path>
      <path d="M30.646 4.08107C30.3782 3.89696 30.0703 3.70904 29.8536 3.46365C29.7131 3.3046 29.6395 3.13149 29.6493 2.91942L29.7902 2.84995C30.3831 2.97996 30.6366 3.46497 30.9744 3.92136L30.646 4.08107Z" fill="#F2F2F2"></path>
      <path d="M29.76 4.94043C29.6485 4.92662 29.5227 4.91669 29.4145 4.88477C29.2336 4.83142 29.2045 4.75648 29.1357 4.60107C29.2129 4.49289 29.2314 4.46303 29.3538 4.40919C29.6499 4.27909 29.9357 4.345 30.2258 4.45352L29.9506 4.92868L29.76 4.94043Z" fill="#F2F2F2"></path>
      <path d="M31.2377 2.18025C31.3378 2.22351 31.436 2.27512 31.4992 2.36792C31.753 2.74052 31.7105 3.48433 31.6644 3.91607L31.3117 3.81136C31.2634 3.75843 31.226 3.71633 31.1962 3.65024C30.9884 3.18939 31.0742 2.63887 31.2377 2.18025Z" fill="#F2F2F2"></path>
      <path d="M29.7606 4.94042L29.9512 4.92868C29.7189 5.80713 29.5937 6.69559 30.08 7.52095C30.427 8.11008 30.99 8.50668 31.5803 8.82626C31.0468 8.95827 30.5435 9.11219 30.0574 9.37793C29.8863 9.10772 28.2649 8.44936 27.8387 8.12688C27.0521 7.53162 26.6631 6.74108 26.5215 5.7762C26.758 5.70441 26.9986 5.51186 27.2277 5.40368C28.0385 5.02115 28.8748 4.92454 29.7606 4.94042Z" fill="#78270E"></path>
      <path d="M37.9783 14.1721C38.0032 14.1621 38.0288 14.1531 38.0536 14.142C38.3274 14.0193 38.9278 12.9298 39.1735 12.6276C40.5779 10.8975 42.486 9.86426 44.7464 9.91314C45.1716 9.92224 45.681 9.93829 46.0855 10.0576C46.2807 10.115 46.3138 10.1458 46.4196 10.3156C46.3551 11.5148 44.7795 13.4101 43.8755 14.2234C42.0121 15.8999 39.697 16.8644 37.3564 17.6654C38.5722 16.1258 39.9948 14.6149 41.5166 13.3772C42.046 12.9466 44.2816 11.5783 44.4437 11.2969C44.3718 11.25 44.3618 11.2201 44.2725 11.2331C42.2511 11.5271 38.3572 15.68 37.1479 17.2502C37.301 16.1811 37.564 15.1715 37.9783 14.1721Z" fill="#1A5E07"></path>
      <path d="M35.4719 17.2145L35.4984 17.1454C35.4455 16.9385 35.1163 16.8949 34.9229 16.8563C32.1907 16.3104 29.0954 15.8946 27.2568 13.5409C26.969 13.1726 26.4629 12.4435 26.5218 11.9809C26.9119 11.6472 28.0625 11.5309 28.5618 11.5029C31.0882 11.3607 33.4737 12.7081 35.0435 14.613C35.4198 15.0691 35.7143 15.7808 36.1353 16.1509L36.2329 15.9693C36.2759 16.2248 36.2932 16.4258 36.256 16.6853C35.9525 16.588 35.4728 15.9647 35.1874 15.7388C33.5772 14.4624 30.7529 12.7264 28.6218 12.7876L28.5667 12.8628C29.0975 13.2762 29.9945 13.4404 30.6277 13.66C32.5377 14.3226 34.6673 15.579 35.8847 17.2313L35.8193 17.3048C35.7134 17.2807 35.5646 17.2669 35.4719 17.2145Z" fill="#1A5E07"></path>
      <path d="M40.8231 1.65372C41.7792 2.84895 42.1381 4.17717 41.9727 5.69563C41.7511 7.73548 40.6088 9.64276 39.0134 10.9098L38.9472 10.962C39.3161 9.14195 39.5899 7.22335 40.1308 5.45081C40.2491 5.06522 40.5121 4.36897 40.3169 4.00191L40.1804 4.0565C39.3475 5.37472 38.9257 9.25683 38.4187 10.9851C37.5461 9.63597 37.6214 7.44228 37.9489 5.92316C38.2748 4.41049 39.0043 2.76599 40.3582 1.91499C40.5088 1.82062 40.6651 1.73585 40.8231 1.65372Z" fill="#1A5E07"></path>
      <path d="M33.197 2.76187C33.8123 1.84925 34.1741 1.44141 35.2352 1.13423C35.5843 1.87125 35.8903 2.60497 36.1169 3.38963C36.2451 3.83229 36.4692 5.48738 36.6603 5.73277C35.9821 5.86982 35.5115 6.23465 35.1343 6.80882C34.9244 7.12866 34.7601 7.49316 34.6082 7.84417C34.4402 7.53335 34.1684 7.14991 34.1004 6.80576C34.1669 6.70709 34.1579 6.68443 34.1499 6.56268C34.0837 5.54362 33.604 4.80321 32.8574 4.14526C32.8966 3.67142 33.0352 3.20634 33.197 2.76187Z" fill="#78270E"></path>
      <path d="M65.5526 17.0709C64.905 17.0516 64.2599 17.0872 63.6148 17.1411C62.0474 17.4572 60.1649 17.9916 59.227 19.4015C58.7589 20.1052 58.5504 20.9743 58.7167 21.8094C58.8391 22.4229 59.1675 22.9837 59.6985 23.3283C60.1897 23.647 60.8953 23.7926 61.4701 23.6637C61.9473 23.5568 62.3534 23.2472 62.6107 22.8348C62.9026 22.3666 62.9878 21.7726 62.8621 21.2373C62.7844 20.9071 62.5587 20.6472 62.3393 20.3945C61.975 19.9749 61.6281 19.5754 62.006 18.9073C62.3137 18.3642 63.0432 18.0406 63.6222 17.9069C64.5171 17.7003 65.5865 17.7635 66.3772 18.2652C67.1506 18.7561 67.5823 19.5625 67.7733 20.44C68.0091 21.5286 68.0645 23.1165 67.4301 24.067C66.8546 24.9295 65.3905 25.2682 63.7456 25.6487C61.3883 26.194 58.6597 26.8252 57.6439 29.2074C57.2532 30.1229 57.3702 31.0629 57.4583 31.7704C57.5072 32.1638 57.5472 32.4853 57.486 32.6909C57.4967 32.705 57.5075 32.719 57.5182 32.7332C57.6454 32.9045 57.7483 33.0893 57.8513 33.2743C57.9265 33.4093 58.0017 33.5443 58.0865 33.6744C58.7928 34.7602 59.7456 35.2321 61.0052 35.4262C62.9059 35.719 65.0133 35.3018 66.5724 34.1468C66.9446 33.8711 67.6328 33.2513 67.7063 32.773C67.7127 32.7814 67.719 32.7897 67.7251 32.7981L67.7328 32.8093C67.9607 33.1508 68.042 33.4926 68.1184 33.814C68.2791 34.4898 68.4184 35.0758 69.8551 35.3813C70.9328 35.6105 72.6019 35.4943 73.5581 34.8586C73.7541 34.7287 73.9559 34.5264 73.9939 34.2859C73.9989 34.2543 74.0002 34.2308 74.0001 34.2057C74.0001 34.1858 73.9993 34.1649 73.9989 34.138C73.9827 34.1228 73.9691 34.1094 73.9571 34.0976C73.886 34.028 73.8728 34.015 73.7433 34.0183C73.5537 34.0232 73.3595 34.0579 73.1653 34.0926C72.6717 34.1808 72.1791 34.2688 71.7666 33.866C71.1546 33.2683 71.1664 31.8849 71.1738 30.9975C71.1744 30.9289 71.1749 30.8633 71.1752 30.8012C71.1901 28.8823 71.1942 26.9633 71.1884 25.0443C71.181 20.7059 71.042 17.2341 65.5526 17.0709ZM67.5152 25.081L67.7518 25.0737L67.823 25.1728C67.8911 25.7247 67.8716 26.2796 67.8521 26.8345C67.8431 27.0885 67.8342 27.3426 67.8337 27.5963C67.8329 27.931 67.8443 28.2717 67.8557 28.6147C67.883 29.4348 67.9108 30.268 67.775 31.0592C67.6989 31.5063 67.5351 31.9341 67.2944 32.3186C66.7651 33.1623 65.8908 33.687 64.929 33.8923C63.79 34.1354 62.896 33.8837 61.9382 33.2695C61.8799 33.166 61.8236 33.0672 61.7694 32.9721C61.2093 31.9895 60.8748 31.4029 60.9879 30.0913C61.2009 27.6143 63.6625 26.6939 65.6833 25.9384L65.8387 25.8802L65.9471 25.8395C66.023 25.811 66.107 25.781 66.1957 25.7492L66.197 25.7488C66.6212 25.5972 67.1554 25.4063 67.4458 25.1461C67.4555 25.1376 67.4648 25.129 67.4741 25.1202C67.4878 25.1072 67.5014 25.094 67.5152 25.081Z" fill="#F2F2F2"></path>
      <path d="M65.8688 25.8687C65.8439 25.8781 65.819 25.8874 65.7939 25.8968L65.8382 25.8802L65.8688 25.8687Z" fill="#EEEE60"></path>
      <path d="M8.93548 7.28877C9.33628 7.24485 9.77142 7.25966 10.1734 7.29928C11.7225 7.43947 13.1511 8.19394 14.1404 9.39422C14.8009 10.2097 15.1856 11.1985 15.0651 12.2558C14.9947 12.8745 14.7635 13.4726 14.2614 13.8667C13.7249 14.2879 12.9562 14.4968 12.2799 14.4133C11.7104 14.343 11.2133 14.0418 10.866 13.587C10.5568 13.1821 10.4222 12.5793 10.4978 12.0778C10.6638 10.9763 11.8175 10.875 12.5498 10.32C12.7465 10.1709 12.8291 10.0197 12.8646 9.77815C12.8198 9.49595 12.7049 9.31184 12.515 9.1073C11.8105 8.34828 10.738 7.99817 9.72254 7.97278C8.84781 7.95078 7.98184 8.18401 7.34688 8.81145C5.83058 10.3094 6.24652 15.0368 6.25099 17.0876C7.26616 17.0971 13.0785 16.9175 13.6023 17.3031C13.6537 17.4738 13.6312 17.5727 13.5873 17.7434C13.1895 18.0154 7.26302 17.8713 6.2452 17.886L6.25355 23.7516C6.77661 23.7527 7.30206 23.7594 7.82461 23.7375C11.5043 23.5838 10.4027 20.9276 11.2871 20.0479C11.3797 19.9558 11.4279 19.981 11.5558 19.981C11.8119 20.3207 11.6963 26.6712 11.6961 27.6243C11.699 27.848 11.6829 28.067 11.6645 28.2896L11.5065 28.4186C11.3018 28.421 11.2515 28.4528 11.0915 28.3161C10.9664 27.2858 10.671 25.9788 9.90202 25.2398C8.94855 24.3235 7.46937 24.5156 6.25347 24.5311C6.24644 26.2815 5.85944 32.6593 6.98123 33.8754C7.59509 34.5409 8.72018 34.453 9.15259 34.9947L9.1334 35.1132C8.89305 35.2464 8.59786 35.2538 8.32856 35.265C7.55531 35.297 0.60907 35.28 0.22745 35.1641C0.151027 35.1409 0.180472 35.1365 0.101402 35.1466C0.0864321 35.1485 0.0719564 35.1531 0.0573168 35.1563L0.0186075 35.065C0.123152 34.6734 1.71348 34.3638 2.1683 33.8891C3.16519 32.8484 2.80425 26.3387 2.79432 24.5443C2.09394 24.5331 0.692607 24.7778 0.16666 24.3459C0.0688979 24.1549 0.0417658 24.1194 0.0638492 23.9093C0.452417 23.5619 2.23472 23.7279 2.78755 23.7262C2.79648 21.7701 2.79515 19.814 2.78357 17.8578C1.93274 17.8737 0.792271 18.0236 0.0204299 17.6163L0 17.3726C0.530579 16.9297 2.09849 17.0924 2.7887 17.0979C2.75785 14.5575 2.79457 11.5322 4.47952 9.45145C5.59477 8.07418 7.22712 7.46701 8.93548 7.28877Z" fill="#F2F2F2"></path>
      <path d="M21.2539 6.00191L21.3494 6.02068C21.4792 6.1727 21.4795 6.25425 21.4895 6.44796C21.5982 8.55282 21.4813 10.7256 21.4805 12.8381L21.4769 26.2022C21.4767 27.8065 21.2464 32.1222 21.7565 33.3814C22.3226 34.7793 23.6452 34.338 24.0716 34.9947L24.0049 35.1696C23.6188 35.3199 16.9814 35.2388 15.9106 35.2717C15.8258 35.2716 15.8425 35.2808 15.7794 35.2558C15.6169 35.1913 15.6212 35.1272 15.5532 34.9773C15.7138 34.4259 16.8938 34.6484 17.375 34.113C17.7921 33.649 17.9546 33.0321 18.0309 32.4286C18.189 31.1779 18.1405 29.8928 18.14 28.6341L18.1352 23.334L18.1315 15.7446C18.1335 14.0598 18.176 12.3648 18.095 10.6818C18.0059 8.83089 18.0687 8.48566 16.239 7.91944C16.0542 7.8622 15.7915 7.8005 15.6545 7.65601C15.5682 7.56503 15.5939 7.5341 15.5918 7.41673L15.6688 7.42649C15.8135 7.25851 16.4779 7.22236 16.7102 7.19284C18.2993 6.99053 19.8141 6.7343 21.2539 6.00191Z" fill="#F2F2F2"></path>
      <path d="M48.2399 16.97L48.4889 17.0014C48.5087 17.0324 48.541 17.0773 48.5551 17.1141C48.7403 17.5973 48.6386 20.8331 48.4517 21.2735C48.7188 21.0412 48.8338 20.713 48.9926 20.4045C49.5542 19.3135 50.2481 18.3563 51.3688 17.7837C52.5334 17.1886 54.0445 16.8787 55.3074 17.3037C56.0088 17.5397 56.5754 18.0238 56.8971 18.6925C57.2321 19.3902 57.2982 20.2114 57.0286 20.942C56.8086 21.5364 56.3669 22.0667 55.7847 22.3325C55.233 22.5843 54.621 22.5627 54.0627 22.3398C53.4986 22.1143 53.0205 21.7114 52.7906 21.1397C52.3473 20.04 52.9436 19.6424 53.2869 18.7383C53.3539 18.5634 53.3414 18.5093 53.2645 18.3453C53.0288 18.2318 52.7815 18.2803 52.5375 18.3389C49.431 19.0838 48.7023 22.7553 48.6394 25.4951C48.6237 26.17 48.6485 28.5356 48.6485 28.5356C48.6485 28.5356 48.6229 30.8094 48.6485 31.4626C48.7106 33.0496 48.8197 34.1257 50.5169 34.6349C50.765 34.7093 51.081 34.7556 51.2704 34.9418C51.3209 34.9911 51.296 35.0809 51.2952 35.1485C51.2762 35.163 51.2572 35.1784 51.2381 35.192C51.1331 35.2643 43.2286 35.2918 42.7902 35.1819L42.7373 34.9998C42.9201 34.3099 44.2484 34.6553 44.7604 34.0037C45.0151 33.6793 45.1135 33.2565 45.1714 32.8566C45.4833 30.7109 45.3327 28.3923 45.3277 26.2201C45.3236 24.4205 45.4386 22.5035 45.1938 20.7255C44.8538 18.2515 43.9531 19.413 42.93 18.6337C42.8407 18.4385 42.8548 18.4176 42.9036 18.2053C44.6462 17.8754 46.5808 17.8606 48.1829 17.0012L48.2399 16.97Z" fill="#F2F2F2"></path>
    </g>
    <defs>
      <clipPath id="clip0_8203_84389">
        <rect width="74" height="35.6389" fill="white"></rect>
      </clipPath>
    </defs>
  </symbol>
  <symbol fill="none" xmlns="http://www.w3.org/2000/svg" viewBox="0 0 74 36" id="logo">
    <g clip-path="url(#clip0_8203_61816)">
      <path d="M31.5942 0.5341C31.13 0.844257 30.7914 1.2358 30.486 1.69814C29.361 1.71725 28.3027 2.03924 27.5036 2.86906C26.7421 3.65992 26.4824 4.61984 26.5179 5.6949L26.5213 5.7762C26.6629 6.74109 27.0519 7.53162 27.8385 8.12688C28.0247 8.26774 28.4388 8.47268 28.8606 8.68136C29.4044 8.95044 29.9608 9.22575 30.0572 9.37794C30.3891 9.85219 31.2757 10.1292 31.8252 10.2301C32.6853 10.3879 33.4531 10.3172 34.2809 10.0719C35.4612 11.9017 35.9592 13.8235 36.2329 15.9693L36.1353 16.1509C35.8891 15.9345 35.6862 15.6012 35.4849 15.2706C35.3419 15.0358 35.1998 14.8024 35.0435 14.613C33.4737 12.7081 31.0882 11.3607 28.5619 11.5029C28.0626 11.5309 26.9119 11.6472 26.5219 11.9809C26.463 12.4435 26.9691 13.1726 27.2568 13.5409C28.9408 15.6966 31.679 16.2268 34.2268 16.7201C34.4608 16.7654 34.6932 16.8104 34.923 16.8563C34.9399 16.8597 34.9579 16.8631 34.9766 16.8667C35.1718 16.9037 35.4501 16.9566 35.4984 17.1454L35.472 17.2145C32.8706 16.7768 30.1544 17.0925 27.9615 18.6644C26.0871 20.0081 25.011 22.1291 24.6477 24.3731C24.2164 27.0366 24.6665 30.0173 26.2698 32.2348C27.5661 34.0277 29.4806 35.1652 31.6601 35.5098C34.0688 35.8905 36.6862 35.4429 38.6769 33.9853C40.566 32.6021 41.6355 30.4877 41.982 28.206C42.3989 25.4599 42.0159 22.5405 40.3345 20.2674C39.6083 19.2857 38.7514 18.6179 37.7076 18.0025C37.685 17.9892 37.6621 17.9765 37.6396 17.964C37.5113 17.8928 37.3913 17.8262 37.3561 17.6654C39.6967 16.8644 42.0118 15.8999 43.8753 14.2234C44.7792 13.4101 46.3548 11.5148 46.4194 10.3156C46.3135 10.1458 46.2804 10.115 46.0852 10.0576C45.6808 9.93829 45.1713 9.92224 44.7462 9.91314C42.4858 9.86427 40.5776 10.8975 39.1732 12.6276C39.0899 12.7301 38.9658 12.9231 38.8274 13.1383C38.5579 13.5576 38.2342 14.0609 38.0533 14.142C38.0372 14.1492 38.0208 14.1555 38.0044 14.1618C37.9956 14.1652 37.9868 14.1686 37.9781 14.1721C38.1291 13.5493 38.3292 12.9316 38.5291 12.3144C38.6749 11.864 38.8208 11.4138 38.9474 10.9621L39.0136 10.9098C40.609 9.64277 41.7513 7.7355 41.9729 5.69564C42.1384 4.17719 41.7794 2.84896 40.8233 1.65373C40.6653 1.73586 40.509 1.82064 40.3584 1.91501C39.0045 2.766 38.275 4.41051 37.9491 5.92318C37.6216 7.44229 37.5463 9.63599 38.4189 10.9851C37.8698 12.7114 37.3371 14.4428 36.8201 16.1789C36.6084 13.944 35.9459 11.7012 34.7759 9.78313C34.9658 9.61043 35.142 9.42318 35.3024 9.2231C35.9724 8.39775 36.7713 6.81296 36.6605 5.73278C36.5384 5.57588 36.4027 4.84269 36.2872 4.21858C36.2221 3.86657 36.1634 3.54926 36.1171 3.38963C35.8905 2.60497 35.5845 1.87126 35.2355 1.13423C34.8963 0.613335 34.3925 0.195817 33.7731 0.0583541C33.0049 -0.11211 32.238 0.104178 31.5942 0.5341ZM32.4017 17.7802C33.4868 17.6731 34.4883 17.7808 35.4323 18.3749C36.9558 19.3339 37.6936 21.1288 38.0765 22.8147C38.7332 25.7107 38.7299 30.4167 37.0658 33.002C36.3884 34.0544 35.515 34.567 34.3178 34.8267C33.201 34.9468 32.1369 34.8358 31.1796 34.2041C29.6069 33.1662 28.9163 31.1943 28.5524 29.4279C27.9429 26.4692 27.8597 22.2141 29.6134 19.593C30.3153 18.5439 31.1888 18.0297 32.4017 17.7802Z" fill="#353C3A"></path>
      <path d="M30.486 1.69815C30.7913 1.2358 31.1298 0.844258 31.5942 0.534099C32.2379 0.104177 33.0049 -0.112108 33.7731 0.0583554C34.3924 0.195818 34.8962 0.613333 35.2354 1.13423C34.1743 1.44142 33.8124 1.84926 33.1972 2.76187C33.0354 3.20635 32.8968 3.67142 32.8576 4.14526C33.6041 4.80321 34.0838 5.54362 34.15 6.56268C34.158 6.68443 34.167 6.70709 34.1005 6.80576L33.8292 6.72553C33.5875 6.90212 33.5269 7.20302 33.4818 7.48505C33.4014 7.98875 33.3896 8.5319 33.3995 9.04164C32.7767 8.85935 32.2283 8.79608 31.58 8.82626C31.0466 8.95827 30.5432 9.11219 30.0571 9.37793C29.886 9.10772 28.2646 8.44936 27.8384 8.12688C27.0518 7.53162 26.6628 6.74109 26.5212 5.7762L26.5178 5.6949C26.4823 4.61984 26.742 3.65992 27.5035 2.86906C28.3026 2.03924 29.3609 1.71725 30.486 1.69815Z" fill="#EAE9E8"></path>
      <path d="M30.486 1.69815C30.7913 1.2358 31.1298 0.844258 31.5942 0.534099C32.2379 0.104177 33.0049 -0.112108 33.7731 0.0583554C34.3924 0.195818 34.8962 0.613333 35.2354 1.13423C34.1743 1.44142 33.8124 1.84926 33.1972 2.76187C33.0354 3.20635 32.8968 3.67142 32.8576 4.14526L32.1123 3.84461C31.815 3.85255 31.2293 3.79284 30.9746 3.92137L30.6462 4.08108C30.5195 4.19621 30.3716 4.36973 30.2261 4.45352L29.9509 4.92868L29.7603 4.94043C28.8745 4.92455 28.0382 5.02115 27.2275 5.40368C26.9983 5.51186 26.7578 5.70441 26.5212 5.7762L26.5178 5.6949C26.4823 4.61984 26.742 3.65992 27.5035 2.86906C28.3026 2.03924 29.3609 1.71725 30.486 1.69815Z" fill="#DB8778"></path>
      <path d="M32.1123 3.84461C32.2479 3.48119 32.3623 3.03431 32.6424 2.75707C32.8952 2.65484 32.9461 2.68834 33.1971 2.76187C33.0353 3.20635 32.8967 3.67142 32.8575 4.14526L32.1123 3.84461Z" fill="#353C3A"></path>
      <path d="M30.646 4.08107C30.3782 3.89696 30.0703 3.70904 29.8536 3.46365C29.7131 3.3046 29.6395 3.13149 29.6493 2.91942L29.7902 2.84995C30.3831 2.97996 30.6366 3.46497 30.9744 3.92136L30.646 4.08107Z" fill="#353C3A"></path>
      <path d="M29.76 4.94043C29.6485 4.92662 29.5227 4.91669 29.4145 4.88477C29.2336 4.83142 29.2045 4.75648 29.1357 4.60107C29.2129 4.49289 29.2314 4.46303 29.3538 4.40919C29.6499 4.27909 29.9357 4.345 30.2258 4.45352L29.9506 4.92868L29.76 4.94043Z" fill="#353C3A"></path>
      <path d="M31.2377 2.18025C31.3378 2.22351 31.436 2.27512 31.4992 2.36792C31.753 2.74052 31.7105 3.48433 31.6644 3.91607L31.3117 3.81136C31.2634 3.75843 31.226 3.71633 31.1962 3.65024C30.9884 3.18939 31.0742 2.63887 31.2377 2.18025Z" fill="#353C3A"></path>
      <path d="M29.7606 4.94042L29.9512 4.92868C29.7189 5.80713 29.5937 6.69559 30.08 7.52095C30.427 8.11008 30.99 8.50668 31.5803 8.82626C31.0468 8.95827 30.5435 9.11219 30.0574 9.37793C29.8863 9.10772 28.2649 8.44936 27.8387 8.12688C27.0521 7.53162 26.6631 6.74108 26.5215 5.7762C26.758 5.70441 26.9986 5.51186 27.2277 5.40368C28.0385 5.02115 28.8748 4.92454 29.7606 4.94042Z" fill="#EBB19F"></path>
      <path d="M37.9783 14.1721C38.0032 14.1621 38.0288 14.1531 38.0536 14.142C38.3274 14.0193 38.9278 12.9298 39.1735 12.6276C40.5779 10.8975 42.486 9.86426 44.7464 9.91314C45.1716 9.92224 45.681 9.93829 46.0855 10.0576C46.2807 10.115 46.3138 10.1458 46.4196 10.3156C46.3551 11.5148 44.7795 13.4101 43.8755 14.2234C42.0121 15.8999 39.697 16.8644 37.3564 17.6654C38.5722 16.1258 39.9948 14.6149 41.5166 13.3772C42.046 12.9466 44.2816 11.5783 44.4437 11.2969C44.3718 11.25 44.3618 11.2201 44.2725 11.2331C42.2511 11.5271 38.3572 15.68 37.1479 17.2502C37.301 16.1811 37.564 15.1715 37.9783 14.1721Z" fill="#97A898"></path>
      <path d="M35.4719 17.2145L35.4984 17.1454C35.4455 16.9385 35.1163 16.8949 34.9229 16.8563C32.1907 16.3104 29.0954 15.8946 27.2568 13.5409C26.969 13.1726 26.4629 12.4435 26.5218 11.9809C26.9119 11.6472 28.0625 11.5309 28.5618 11.5029C31.0882 11.3607 33.4737 12.7081 35.0435 14.613C35.4198 15.0691 35.7143 15.7808 36.1353 16.1509L36.2329 15.9693C36.2759 16.2248 36.2932 16.4258 36.256 16.6853C35.9525 16.588 35.4728 15.9647 35.1874 15.7388C33.5772 14.4624 30.7529 12.7264 28.6218 12.7876L28.5667 12.8628C29.0975 13.2762 29.9945 13.4404 30.6277 13.66C32.5377 14.3226 34.6673 15.579 35.8847 17.2313L35.8193 17.3048C35.7134 17.2807 35.5646 17.2669 35.4719 17.2145Z" fill="#97A898"></path>
      <path d="M40.8231 1.65372C41.7792 2.84895 42.1381 4.17717 41.9727 5.69563C41.7511 7.73548 40.6088 9.64276 39.0134 10.9098L38.9472 10.962C39.3161 9.14195 39.5899 7.22335 40.1308 5.45081C40.2491 5.06522 40.5121 4.36897 40.3169 4.00191L40.1804 4.0565C39.3475 5.37472 38.9257 9.25683 38.4187 10.9851C37.5461 9.63597 37.6214 7.44228 37.9489 5.92316C38.2748 4.41049 39.0043 2.76599 40.3582 1.91499C40.5088 1.82062 40.6651 1.73585 40.8231 1.65372Z" fill="#97A898"></path>
      <path d="M33.197 2.76187C33.8123 1.84925 34.1741 1.44141 35.2352 1.13423C35.5843 1.87125 35.8903 2.60497 36.1169 3.38963C36.2451 3.83229 36.4692 5.48738 36.6603 5.73277C35.9821 5.86982 35.5115 6.23465 35.1343 6.80882C34.9244 7.12866 34.7601 7.49316 34.6082 7.84417C34.4402 7.53335 34.1684 7.14991 34.1004 6.80576C34.1669 6.70709 34.1579 6.68443 34.1499 6.56268C34.0837 5.54362 33.604 4.80321 32.8574 4.14526C32.8966 3.67142 33.0352 3.20634 33.197 2.76187Z" fill="#EBB19F"></path>
      <path d="M65.5526 17.0709C64.905 17.0516 64.2599 17.0872 63.6148 17.1411C62.0474 17.4572 60.1649 17.9916 59.227 19.4015C58.7589 20.1052 58.5504 20.9743 58.7167 21.8094C58.8391 22.4229 59.1675 22.9837 59.6985 23.3283C60.1897 23.647 60.8953 23.7926 61.4701 23.6637C61.9473 23.5568 62.3534 23.2472 62.6107 22.8348C62.9026 22.3666 62.9878 21.7726 62.8621 21.2373C62.7844 20.9071 62.5587 20.6472 62.3393 20.3945C61.975 19.9749 61.6281 19.5754 62.006 18.9073C62.3137 18.3642 63.0432 18.0406 63.6222 17.9069C64.5171 17.7003 65.5865 17.7635 66.3772 18.2652C67.1506 18.7561 67.5823 19.5625 67.7733 20.44C68.0091 21.5286 68.0645 23.1165 67.4301 24.067C66.8546 24.9295 65.3905 25.2682 63.7456 25.6487C61.3883 26.194 58.6597 26.8252 57.6439 29.2074C57.2532 30.1229 57.3702 31.0629 57.4583 31.7704C57.5072 32.1638 57.5472 32.4853 57.486 32.6909C57.4967 32.705 57.5075 32.719 57.5182 32.7332C57.6454 32.9045 57.7483 33.0893 57.8513 33.2743C57.9265 33.4093 58.0017 33.5443 58.0865 33.6744C58.7928 34.7602 59.7456 35.2321 61.0052 35.4262C62.9059 35.719 65.0133 35.3018 66.5724 34.1468C66.9446 33.8711 67.6328 33.2513 67.7063 32.773C67.7127 32.7814 67.719 32.7897 67.7251 32.7981L67.7328 32.8093C67.9607 33.1508 68.042 33.4926 68.1184 33.814C68.2791 34.4898 68.4184 35.0758 69.8551 35.3813C70.9328 35.6105 72.6019 35.4943 73.5581 34.8586C73.7541 34.7287 73.9559 34.5264 73.9939 34.2859C73.9989 34.2543 74.0002 34.2308 74.0001 34.2057C74.0001 34.1858 73.9993 34.1649 73.9989 34.138C73.9827 34.1228 73.9691 34.1094 73.9571 34.0976C73.886 34.028 73.8728 34.015 73.7433 34.0183C73.5537 34.0232 73.3595 34.0579 73.1653 34.0926C72.6717 34.1808 72.1791 34.2688 71.7666 33.866C71.1546 33.2683 71.1664 31.8849 71.1738 30.9975C71.1744 30.9289 71.1749 30.8633 71.1752 30.8012C71.1901 28.8823 71.1942 26.9633 71.1884 25.0443C71.181 20.7059 71.042 17.2341 65.5526 17.0709ZM67.5152 25.081L67.7518 25.0737L67.823 25.1728C67.8911 25.7247 67.8716 26.2796 67.8521 26.8345C67.8431 27.0885 67.8342 27.3426 67.8337 27.5963C67.8329 27.931 67.8443 28.2717 67.8557 28.6147C67.883 29.4348 67.9108 30.268 67.775 31.0592C67.6989 31.5063 67.5351 31.9341 67.2944 32.3186C66.7651 33.1623 65.8908 33.687 64.929 33.8923C63.79 34.1354 62.896 33.8837 61.9382 33.2695C61.8799 33.166 61.8236 33.0672 61.7694 32.9721C61.2093 31.9895 60.8748 31.4029 60.9879 30.0913C61.2009 27.6143 63.6625 26.6939 65.6833 25.9384L65.8387 25.8802L65.9471 25.8395C66.023 25.811 66.107 25.781 66.1957 25.7492L66.197 25.7488C66.6212 25.5972 67.1554 25.4063 67.4458 25.1461C67.4555 25.1376 67.4648 25.129 67.4741 25.1202C67.4878 25.1072 67.5014 25.094 67.5152 25.081Z" fill="#353C3A"></path>
      <path d="M65.8688 25.8687C65.8439 25.8781 65.819 25.8874 65.7939 25.8968L65.8382 25.8802L65.8688 25.8687Z" fill="#EAE9E8"></path>
      <path d="M8.93548 7.28877C9.33628 7.24485 9.77142 7.25966 10.1734 7.29928C11.7225 7.43947 13.1511 8.19394 14.1404 9.39422C14.8009 10.2097 15.1856 11.1985 15.0651 12.2558C14.9947 12.8745 14.7635 13.4726 14.2614 13.8667C13.7249 14.2879 12.9562 14.4968 12.2799 14.4133C11.7104 14.343 11.2133 14.0418 10.866 13.587C10.5568 13.1821 10.4222 12.5793 10.4978 12.0778C10.6638 10.9763 11.8175 10.875 12.5498 10.32C12.7465 10.1709 12.8291 10.0197 12.8646 9.77815C12.8198 9.49595 12.7049 9.31184 12.515 9.1073C11.8105 8.34828 10.738 7.99817 9.72254 7.97278C8.84781 7.95078 7.98184 8.18401 7.34688 8.81145C5.83058 10.3094 6.24652 15.0368 6.25099 17.0876C7.26616 17.0971 13.0785 16.9175 13.6023 17.3031C13.6537 17.4738 13.6312 17.5727 13.5873 17.7434C13.1895 18.0154 7.26302 17.8713 6.2452 17.886L6.25355 23.7516C6.77661 23.7527 7.30206 23.7594 7.82461 23.7375C11.5043 23.5838 10.4027 20.9276 11.2871 20.0479C11.3797 19.9558 11.4279 19.981 11.5558 19.981C11.8119 20.3207 11.6963 26.6712 11.6961 27.6243C11.699 27.848 11.6829 28.067 11.6645 28.2896L11.5065 28.4186C11.3018 28.421 11.2515 28.4528 11.0915 28.3161C10.9664 27.2858 10.671 25.9788 9.90202 25.2398C8.94855 24.3235 7.46937 24.5156 6.25347 24.5311C6.24644 26.2815 5.85944 32.6593 6.98123 33.8754C7.59509 34.5409 8.72018 34.453 9.15259 34.9947L9.1334 35.1132C8.89305 35.2464 8.59786 35.2538 8.32856 35.265C7.55531 35.297 0.60907 35.28 0.22745 35.1641C0.151027 35.1409 0.180472 35.1365 0.101402 35.1466C0.0864321 35.1485 0.0719564 35.1531 0.0573168 35.1563L0.0186075 35.065C0.123152 34.6734 1.71348 34.3638 2.1683 33.8891C3.16519 32.8484 2.80425 26.3387 2.79432 24.5443C2.09394 24.5331 0.692607 24.7778 0.16666 24.3459C0.0688979 24.1549 0.0417658 24.1194 0.0638492 23.9093C0.452417 23.5619 2.23472 23.7279 2.78755 23.7262C2.79648 21.7701 2.79515 19.814 2.78357 17.8578C1.93274 17.8737 0.792271 18.0236 0.0204299 17.6163L0 17.3726C0.530579 16.9297 2.09849 17.0924 2.7887 17.0979C2.75785 14.5575 2.79457 11.5322 4.47952 9.45145C5.59477 8.07418 7.22712 7.46701 8.93548 7.28877Z" fill="#353C3A"></path>
      <path d="M21.2539 6.00191L21.3494 6.02068C21.4792 6.1727 21.4795 6.25425 21.4895 6.44796C21.5982 8.55282 21.4813 10.7256 21.4805 12.8381L21.4769 26.2022C21.4767 27.8065 21.2464 32.1222 21.7565 33.3814C22.3226 34.7793 23.6452 34.338 24.0716 34.9947L24.0049 35.1696C23.6188 35.3199 16.9814 35.2388 15.9106 35.2717C15.8258 35.2716 15.8425 35.2808 15.7794 35.2558C15.6169 35.1913 15.6212 35.1272 15.5532 34.9773C15.7138 34.4259 16.8938 34.6484 17.375 34.113C17.7921 33.649 17.9546 33.0321 18.0309 32.4286C18.189 31.1779 18.1405 29.8928 18.14 28.6341L18.1352 23.334L18.1315 15.7446C18.1335 14.0598 18.176 12.3648 18.095 10.6818C18.0059 8.83089 18.0687 8.48566 16.239 7.91944C16.0542 7.8622 15.7915 7.8005 15.6545 7.65601C15.5682 7.56503 15.5939 7.5341 15.5918 7.41673L15.6688 7.42649C15.8135 7.25851 16.4779 7.22236 16.7102 7.19284C18.2993 6.99053 19.8141 6.7343 21.2539 6.00191Z" fill="#353C3A"></path>
      <path d="M48.2399 16.97L48.4889 17.0014C48.5087 17.0324 48.541 17.0773 48.5551 17.1141C48.7403 17.5973 48.6386 20.8331 48.4517 21.2735C48.7188 21.0412 48.8338 20.713 48.9926 20.4045C49.5542 19.3135 50.2481 18.3563 51.3688 17.7837C52.5334 17.1886 54.0445 16.8787 55.3074 17.3037C56.0088 17.5397 56.5754 18.0238 56.8971 18.6925C57.2321 19.3902 57.2982 20.2114 57.0286 20.942C56.8086 21.5364 56.3669 22.0667 55.7847 22.3325C55.233 22.5843 54.621 22.5627 54.0627 22.3398C53.4986 22.1143 53.0205 21.7114 52.7906 21.1397C52.3473 20.04 52.9436 19.6424 53.2869 18.7383C53.3539 18.5634 53.3414 18.5093 53.2645 18.3453C53.0288 18.2318 52.7815 18.2803 52.5375 18.3389C49.431 19.0838 48.7023 22.7553 48.6394 25.4951C48.6237 26.17 48.6485 28.5356 48.6485 28.5356C48.6485 28.5356 48.6229 30.8094 48.6485 31.4626C48.7106 33.0496 48.8197 34.1257 50.5169 34.6349C50.765 34.7093 51.081 34.7556 51.2704 34.9418C51.3209 34.9911 51.296 35.0809 51.2952 35.1485C51.2762 35.163 51.2572 35.1784 51.2381 35.192C51.1331 35.2643 43.2286 35.2918 42.7902 35.1819L42.7373 34.9998C42.9201 34.3099 44.2484 34.6553 44.7604 34.0037C45.0151 33.6793 45.1135 33.2565 45.1714 32.8566C45.4833 30.7109 45.3327 28.3923 45.3277 26.2201C45.3236 24.4205 45.4386 22.5035 45.1938 20.7255C44.8538 18.2515 43.9531 19.413 42.93 18.6337C42.8407 18.4385 42.8548 18.4176 42.9036 18.2053C44.6462 17.8754 46.5808 17.8606 48.1829 17.0012L48.2399 16.97Z" fill="#353C3A"></path>
    </g>
    <defs>
      <clipPath id="clip0_8203_61816">
        <rect width="74" height="35.6389" fill="white"></rect>
      </clipPath>
    </defs>
  </symbol>
</svg>